<?xml version="1.0" encoding="UTF-8"?>
<svg id="Layer_1" xmlns="http://www.w3.org/2000/svg" version="1.1" viewBox="0 0 72 72">
  <!-- Generator: Adobe Illustrator 30.6.0, SVG Export Plug-In . SVG Version: 2.1.4 Build 109)  -->
  <defs>
    <style>
      .st0 {
        fill: #fff;
      }
    </style>
  </defs>
  <path class="st0" d="M72,36C72,16.12,55.88,0,36,0S0,16.12,0,36s16.12,36,36,36,36-16.12,36-36ZM63,36c0-14.91-12.09-27-27-27s-27,12.09-27,27,12.09,27,27,27,27-12.09,27-27ZM67,36c0,17.12-13.88,31-31,31S5,53.12,5,36,18.88,5,36,5s31,13.88,31,31Z"/>
</svg>